<svg width="17" height="22" viewBox="0 0 17 22" fill="none" xmlns="http://www.w3.org/2000/svg">
<rect width="16.5391" height="22" rx="2" fill="#F5F5F5"/>
<path d="M4.51066 10.2483C3.53497 10.2483 2.78796 9.86743 2.26962 9.10563C1.75891 8.34383 1.50356 7.25726 1.50356 5.84593C1.50356 4.43459 1.75891 3.36005 2.26962 2.62231C2.78796 1.87654 3.53497 1.50366 4.51066 1.50366C5.48635 1.50366 6.22955 1.87654 6.74027 2.62231C7.2586 3.36005 7.51777 4.43459 7.51777 5.84593C7.51777 7.25726 7.2586 8.34383 6.74027 9.10563C6.22955 9.86743 5.48635 10.2483 4.51066 10.2483ZM4.51066 8.73275C4.95277 8.73275 5.28054 8.50421 5.49398 8.04713C5.70741 7.58203 5.81412 6.8483 5.81412 5.84593C5.81412 4.84356 5.70741 4.12185 5.49398 3.68081C5.28054 3.23977 4.95277 3.01924 4.51066 3.01924C4.06855 3.01924 3.74078 3.23977 3.52735 3.68081C3.31392 4.12185 3.2072 4.84356 3.2072 5.84593C3.2072 6.8483 3.31392 7.58203 3.52735 8.04713C3.74078 8.50421 4.06855 8.73275 4.51066 8.73275Z" fill="#1C1C1C"/>
<path d="M9.29526 9.98371V8.4561H11.2626V3.58458L9.75597 4.4386L9.02132 3.07939L11.823 1.50366H13.1927V8.4561H15.0355V9.98371H9.29526Z" fill="#1C1C1C"/>
<path d="M1.86913 20.3641V18.9808L4.47528 16.1902C4.80548 15.8213 5.04133 15.5006 5.18284 15.2279C5.33221 14.9473 5.4069 14.6666 5.4069 14.3859C5.4069 13.6642 4.97057 13.3034 4.09792 13.3034C3.75987 13.3034 3.42181 13.3715 3.08376 13.5079C2.74571 13.6362 2.41551 13.8366 2.09318 14.1093L1.50356 12.738C1.84947 12.4333 2.274 12.1928 2.77715 12.0163C3.28817 11.8399 3.81097 11.7517 4.34557 11.7517C5.27325 11.7517 5.9808 11.9642 6.46823 12.3892C6.96352 12.8062 7.21116 13.4036 7.21116 14.1815C7.21116 14.6947 7.09324 15.1878 6.85739 15.6609C6.6294 16.126 6.25203 16.6312 5.7253 17.1765L4.12151 18.8365H7.51777V20.3641H1.86913Z" fill="#1C1C1C"/>
<path d="M11.9468 20.4964C11.3718 20.4964 10.824 20.4122 10.3034 20.2438C9.78281 20.0754 9.35544 19.8468 9.02132 19.5582L9.59243 18.1508C10.284 18.6801 11.0455 18.9447 11.8769 18.9447C12.8249 18.9447 13.2989 18.5798 13.2989 17.8501C13.2989 17.1765 12.856 16.8397 11.9701 16.8397H10.5948V15.3362H11.7953C12.1838 15.3362 12.4908 15.244 12.7161 15.0595C12.9414 14.8751 13.0541 14.6185 13.0541 14.2897C13.0541 13.6322 12.6384 13.3034 11.807 13.3034C11.0299 13.3034 10.3384 13.572 9.7323 14.1093L9.16118 12.738C9.50308 12.4253 9.92267 12.1847 10.42 12.0163C10.9173 11.8399 11.434 11.7517 11.9701 11.7517C12.856 11.7517 13.5475 11.9562 14.0448 12.3652C14.5421 12.7741 14.7908 13.3355 14.7908 14.0491C14.7908 14.4902 14.682 14.8791 14.4644 15.2159C14.2468 15.5527 13.9438 15.7973 13.5553 15.9496C14.0215 16.086 14.3828 16.3386 14.6392 16.7074C14.9034 17.0683 15.0355 17.5053 15.0355 18.0185C15.0355 18.7883 14.7597 19.3938 14.208 19.8348C13.6563 20.2759 12.9026 20.4964 11.9468 20.4964Z" fill="#1C1C1C"/>
</svg>
